<svg width="523" height="267" viewBox="0 0 523 267" fill="none" xmlns="http://www.w3.org/2000/svg">
<path d="M232.108 78.3197C233.107 78.3789 234.109 78.3789 235.109 78.3197H232.108ZM521.994 76.5322C518.976 76.8141 516.043 75.9119 513.042 75.9119C459.691 75.9119 406.34 75.9119 352.989 75.9119L353.215 78.4099H352.978C406.382 78.3911 459.791 78.3817 513.206 78.3817C516.489 78.3817 519.767 77.8573 523.028 77.5754C522.938 76.6449 522.452 76.4927 521.994 76.5322Z" fill="#F8F8F8"/>
<path d="M363.603 245.859C361.789 232.738 360.122 219.599 358.387 206.466C355.61 185.413 352.825 164.361 350.033 143.309C348.248 129.809 346.46 116.31 344.67 102.81C343.698 95.4792 342.715 88.0977 341.844 80.7276C341.739 80.1076 341.76 79.4727 341.907 78.8611L353.001 78.3987H353.238L353.012 75.9006H341.709C341.428 75.5991 341.211 75.2436 341.072 74.8558C340.933 74.468 340.875 74.056 340.901 73.645C340.901 71.4627 339.838 71.0285 337.877 71.1357C331.293 71.4797 324.703 71.6996 318.096 71.9421C309.252 72.2973 300.407 72.6751 291.534 73.0022C290.404 73.0417 288.556 73.5379 288.482 71.9533C288.392 70.1263 290.319 70.5436 291.557 70.4703C294.094 70.3237 296.643 70.2109 299.181 70.1545C300.396 70.1545 301.356 69.8444 302.006 68.6996C310.749 53.4067 315.242 37.1834 312.253 19.5108C310.512 9.25354 303.34 3.55817 292.868 3.48486C288.519 3.40873 284.205 4.27648 280.225 6.02804C278.14 6.96411 276.642 6.88517 274.636 5.52054C266.825 0.163507 257.935 -1.22368 248.972 1.05447C235.148 4.56755 227.309 14.447 223.715 27.7381C220.46 39.7491 220.771 52.121 220.991 64.4422C221.048 67.882 220.889 68.0624 217.374 68.1978C204.941 68.6658 192.507 69.2015 180.107 69.5568C177.479 69.6301 176.219 70.2898 176.813 73.115C177.316 75.4833 176.372 76.7352 173.812 76.4984C172.303 76.3517 171.935 77.2483 171.794 78.5566C170.511 90.3984 169.16 102.268 167.883 114.127C166.25 129.257 164.735 144.397 163.057 159.521C159.96 187.434 157.123 215.381 152.217 243.062C152.047 244.021 151.437 245.25 152.432 245.961C153.426 246.671 154.387 245.775 155.286 245.307C162.203 241.703 169.194 238.213 176.004 234.407C178.508 233.003 179.395 233.719 180.334 235.997C183.318 243.198 186.415 250.354 189.506 257.51C189.806 258.192 189.783 259.483 190.998 259.122C191.902 258.852 191.484 257.831 191.439 257.132C191.117 252.446 190.744 247.76 190.422 243.074C188.387 213.83 186.409 184.586 184.324 155.343C182.564 130.606 180.731 105.872 178.825 81.1392C178.695 79.4081 179.028 78.4212 180.057 78.0322L185.476 78.0603L211.383 78.2013L232.096 78.3197H235.097L339.736 78.8836C340.128 79.5403 340.365 80.2766 340.431 81.0377C343.969 108.99 347.53 136.937 351.424 164.844C355.103 191.173 358.42 217.552 361.97 243.897C362.32 246.48 361.744 247.664 358.94 247.946C346.117 249.243 333.299 250.715 320.487 252.062C301.004 254.145 281.525 256.213 262.05 258.265C239.304 260.679 216.556 263.111 193.807 265.562C192.495 265.7 191.17 265.492 189.964 264.959C182.329 261.773 174.484 259.004 167.064 255.372C158.196 251.025 148.933 249.857 139.264 249.869C94.4296 249.936 49.6012 249.869 4.75598 249.925C0.545551 249.925 -3.66487 250.28 -7.8753 250.489C-8.29917 250.489 -8.84172 250.489 -9.00562 251.515C-5.23601 251.797 -1.50032 252.316 2.22972 252.322C48.6631 252.378 95.0965 252.387 141.53 252.35C143.393 252.314 145.254 252.177 147.102 251.938C150.425 251.577 153.743 251.6 157.049 253.032C167.052 257.385 177.203 261.406 187.251 265.647C189.826 266.806 192.671 267.234 195.474 266.882C201.075 266.143 206.698 265.585 212.316 264.987C237.409 262.337 262.507 259.743 287.595 257.053C312.027 254.436 336.447 251.701 360.884 249.124C363.207 248.871 363.936 248.273 363.603 245.859ZM280.14 7.73665C288.109 4.22357 298.35 2.66157 306.109 10.4546C309.105 13.4715 310.568 17.1312 311.151 21.2138C313.49 37.6514 309.173 52.6342 301.119 66.7993C300.786 67.4757 300.257 68.0373 299.602 68.412C298.946 68.7868 298.193 68.9576 297.44 68.9026C295.366 68.8505 293.291 68.9032 291.223 69.0605C288.962 69.2353 288.222 68.3275 288.273 66.1283C288.38 60.8784 288.307 55.6229 288.307 50.3673C288.307 41.8356 288.256 33.2981 286.611 24.8566C285.572 19.3868 283.599 14.4132 279.965 10.1952C279.23 9.24226 278.739 8.35694 280.14 7.73665ZM278.784 11.4866C282.74 16.0541 284.78 21.4225 285.651 27.2757C287.578 40.3412 287.346 53.4857 286.973 66.6358C286.911 68.7955 285.707 69.2523 283.859 69.3256C274.082 69.7147 264.305 70.1601 254.527 70.5887V70.5492L227.728 71.677C226.976 71.7109 226.224 71.7278 225.467 71.7334C224.438 71.7334 223.088 71.88 223.093 70.4646C223.093 69.2917 224.382 69.3368 225.314 69.2974C229.446 69.0887 233.588 68.7335 237.72 68.7335C240.155 68.7335 241.111 67.741 241.811 65.5757C246.48 51.4782 252.052 37.7304 260.23 25.2118C263.971 19.5729 268.295 14.447 274.144 10.714C276.252 9.34376 277.354 9.82872 278.784 11.4866ZM222.426 54.4218C222.551 44.6494 222.556 34.7868 225.993 25.4882C230.147 14.261 237.494 5.75173 249.379 2.48113C257.568 0.225535 265.638 1.56197 272.923 6.29308C274.263 7.16148 275.421 8.06371 273.268 9.29865C264.994 14.041 260.06 21.7044 255.5 29.6497C249.243 40.5217 244.569 52.1041 240.698 64.0024C239.907 66.4384 238.743 67.5493 236.103 67.5098C232.532 67.4534 228.954 67.7297 225.365 67.9271C223.336 68.0342 222.387 67.1489 222.404 65.1076C222.438 61.5607 222.426 57.9912 222.426 54.4218ZM185.663 194.939C185.878 197.934 186.042 200.939 186.228 203.962C187.325 218.852 188.415 233.747 189.5 248.645C189.557 249.406 190.133 250.602 188.975 250.777C188.082 250.912 187.844 249.677 187.505 248.938C185.245 243.762 182.984 238.608 180.927 233.369C180.068 231.176 179.034 230.967 177.101 231.999C170.217 235.67 163.288 239.262 156.354 242.837C155.681 243.181 155.009 244.134 154.093 243.344C153.392 242.73 153.85 241.929 153.975 241.219C158.36 215.279 161.231 189.131 163.984 162.978C166.171 142.147 168.646 121.351 170.963 100.537C171.687 94.0017 172.308 87.4605 172.986 80.9193C173.133 79.5039 173.19 77.9307 175.191 77.9363C177.372 77.9363 177.31 79.5885 177.451 81.1336C180.183 119.061 182.92 156.997 185.663 194.939ZM339.137 75.9006L178.932 75.6412C178.433 75.0198 178.182 74.2368 178.226 73.442C178.146 71.0116 179.814 70.9609 181.441 70.9496C187.658 70.9101 193.875 70.9496 200.091 70.9496V70.8763L221.234 71.0229V71.1526C221.437 73.4082 222.788 73.2841 224.382 73.2165C242.919 72.442 261.454 71.6789 279.988 70.927C281.491 70.865 282.994 70.7804 284.509 70.7015C285.577 70.6507 286.651 71.0849 286.583 72.1225C286.414 74.942 288.228 74.4345 289.901 74.3781C305.348 73.7804 320.779 73.1826 336.193 72.5849C337.854 72.5229 339.397 72.7428 339.437 74.7615C339.459 75.1631 339.354 75.5615 339.137 75.9006Z" fill="#F8F8F8"/>
</svg>
