<svg width="73" height="53" viewBox="0 0 73 53" fill="none" xmlns="http://www.w3.org/2000/svg">
<path d="M73 44.6111C73 46.7623 72.1454 48.8254 70.6243 50.3465C69.1032 51.8677 67.0401 52.7222 64.8889 52.7222H8.11111C5.95991 52.7222 3.89682 51.8677 2.37569 50.3465C0.854561 48.8254 0 46.7623 0 44.6111V8.11111C0 5.95991 0.854561 3.89682 2.37569 2.37569C3.89682 0.854561 5.95991 0 8.11111 0H64.8889C67.0401 0 69.1032 0.854561 70.6243 2.37569C72.1454 3.89682 73 5.95991 73 8.11111V44.6111Z" fill="#CCD6DD"/>
<path d="M24.2323 25.6229L1.29208 48.5631C1.23733 48.6199 1.21705 48.6909 1.17041 48.7477C1.85985 49.9035 2.82102 50.8626 3.97685 51.5541C4.03566 51.5075 4.1046 51.4872 4.15935 51.4324L27.1016 28.4901C27.4819 28.1097 27.6954 27.5937 27.6952 27.0558C27.695 26.5179 27.4811 26.0021 27.1006 25.6219C26.7201 25.2416 26.2042 25.0281 25.6663 25.0283C25.1284 25.0285 24.6126 25.2424 24.2323 25.6229ZM71.8304 48.7477C71.7878 48.6909 71.7634 48.6199 71.7087 48.5651L48.7705 25.6229C48.5822 25.4345 48.3587 25.285 48.1126 25.183C47.8666 25.081 47.6029 25.0284 47.3365 25.0283C47.0702 25.0282 46.8064 25.0806 46.5603 25.1824C46.3142 25.2843 46.0906 25.4336 45.9022 25.6219C45.7138 25.8101 45.5643 26.0337 45.4623 26.2797C45.3603 26.5257 45.3077 26.7894 45.3076 27.0558C45.3075 27.3221 45.3599 27.5859 45.4617 27.832C45.5636 28.0781 45.7129 28.3017 45.9012 28.4901L68.8414 51.4324C68.8941 51.4851 68.9671 51.5075 69.0239 51.5541C70.1785 50.8669 71.1432 49.9023 71.8304 48.7477Z" fill="#99AAB5"/>
<path d="M64.8889 0H8.11111C5.95991 0 3.89682 0.854561 2.37569 2.37569C0.854561 3.89682 0 5.95991 0 8.11111L0 10.1997L29.4596 39.5944C31.3144 41.4384 33.8236 42.4735 36.4392 42.4735C39.0547 42.4735 41.5639 41.4384 43.4188 39.5944L73 10.1571V8.11111C73 5.95991 72.1454 3.89682 70.6243 2.37569C69.1032 0.854561 67.0401 0 64.8889 0Z" fill="#99AAB5"/>
<path d="M64.8884 0H8.11066C6.58422 0.00339857 5.08985 0.438319 3.79999 1.25458C2.51012 2.07083 1.47734 3.23516 0.820801 4.61319L30.763 34.5574C31.5162 35.3106 32.4103 35.9081 33.3945 36.3158C34.3786 36.7234 35.4333 36.9332 36.4985 36.9332C37.5637 36.9332 38.6185 36.7234 39.6026 36.3158C40.5867 35.9081 41.4809 35.3106 42.2341 34.5574L72.1783 4.61319C71.522 3.23501 70.4892 2.07055 69.1993 1.25426C67.9094 0.43798 66.4149 0.00315782 64.8884 0Z" fill="#E1E8ED"/>
<path d="M30.417 8.65853C30.417 7.17825 31.1571 6.08325 32.4448 6.08325H39.7853C41.4866 6.08325 42.1659 7.07686 42.1659 8.11103C42.1659 9.11681 41.4582 10.1388 40.0672 10.1388H34.576V14.1944H39.7123C41.1642 14.1944 41.8719 15.1859 41.8719 16.2221C41.8719 17.2279 41.1297 18.2499 39.7123 18.2499H34.576V22.3055H40.3349C41.7523 22.3055 42.4377 23.2971 42.4377 24.3333C42.4377 25.339 41.7219 26.361 40.3349 26.361H32.6982C31.3944 26.361 30.417 25.2843 30.417 23.952V8.65853Z" fill="#66757F"/>
</svg>
