<svg width="35" height="35" viewBox="0 0 35 35" fill="none" xmlns="http://www.w3.org/2000/svg">
<path d="M25.7543 23.864C24.8293 23.864 24.0795 23.1142 24.0795 22.1892V12.4367C24.0795 9.14981 21.4054 6.47559 18.1184 6.47559C14.8314 6.47559 12.1572 9.14974 12.1572 12.4367V18.109C12.1572 19.034 11.4074 19.7838 10.4824 19.7838C9.55745 19.7838 8.80762 19.034 8.80762 18.109V12.4367C8.80762 7.30274 12.9844 3.12598 18.1184 3.12598C23.2524 3.12598 27.4291 7.30274 27.4291 12.4367V22.1892C27.4291 23.1142 26.6793 23.864 25.7543 23.864Z" fill="#B1B4B5"/>
<path d="M28.3088 34.0059H7.92822C6.02544 34.0059 4.48291 32.4633 4.48291 30.5606V18.7776C4.48291 16.8748 6.02544 15.3323 7.92822 15.3323H28.3088C30.2115 15.3323 31.7541 16.8748 31.7541 18.7776V30.5605C31.7541 32.4633 30.2115 34.0059 28.3088 34.0059Z" fill="#FFB636"/>
<path d="M7.47241 31.2295H7.2998C6.75614 31.2295 6.31543 30.7888 6.31543 30.2451V19.0935C6.31543 18.5498 6.75614 18.1091 7.2998 18.1091H7.47241C8.01607 18.1091 8.45679 18.5498 8.45679 19.0935V30.2451C8.45679 30.7888 8.01607 31.2295 7.47241 31.2295Z" fill="#FFD469"/>
</svg>
