<svg width="200" height="56" viewBox="0 0 200 56" fill="none" xmlns="http://www.w3.org/2000/svg">
<path d="M16.0594 0H0V8.69865H16.0594V0Z" fill="#F8F8F8"/>
<path d="M22.966 40.5169H8.04651V33.9751H22.966C23.1794 33.9774 23.3911 33.9358 23.5879 33.8529C23.7848 33.77 23.9628 33.6475 24.111 33.493C24.2655 33.3446 24.3878 33.1657 24.4703 32.9674C24.5528 32.7692 24.5936 32.5559 24.5901 32.341C24.6145 32.1568 24.5815 31.9696 24.4957 31.8051C24.4099 31.6405 24.2755 31.5068 24.111 31.4224C23.7483 31.2718 23.3583 31.1992 22.966 31.2092H16.1771C15.083 31.2166 13.9993 30.9954 12.9945 30.5596C11.0471 29.7174 9.50092 28.1471 8.68203 26.1799C8.26263 25.1658 8.04672 24.0784 8.04672 22.98C8.04672 21.8817 8.26263 20.7942 8.68203 19.7802C9.49175 17.8128 11.042 16.2474 12.9945 15.4258C14.0007 14.9958 15.0839 14.7782 16.1771 14.7864H29.3969V21.3433H16.1771C15.7454 21.3447 15.3318 21.5178 15.0266 21.8249C14.7214 22.1321 14.5493 22.5482 14.548 22.9826C14.545 23.2027 14.5859 23.4211 14.6682 23.6251C14.7505 23.8291 14.8725 24.0144 15.0271 24.1701C15.1727 24.3311 15.3504 24.4595 15.5485 24.5469C15.7466 24.6343 15.9608 24.6789 16.1771 24.6776H22.966C24.0441 24.673 25.1139 24.8656 26.1235 25.246C27.082 25.5932 27.9655 26.1221 28.7261 26.8041C29.4663 27.4875 30.0616 28.3143 30.4762 29.235C30.9126 30.211 31.1329 31.2708 31.1219 32.341C31.1291 33.437 30.9092 34.5224 30.4762 35.5281C30.0578 36.4943 29.4643 37.3737 28.7261 38.1215C27.9757 38.8834 27.0823 39.4875 26.0978 39.8987C25.1132 40.31 24.0573 40.5201 22.9913 40.5169H22.966Z" fill="#F8F8F8"/>
<path d="M39.091 47.0129H32.5341V10.98H39.091V22.3786C39.8147 21.8154 40.633 21.3874 41.507 21.1149C42.3253 20.8691 43.1748 20.7443 44.0289 20.7444C45.5572 20.7342 47.0714 21.0399 48.4775 21.6427C49.8332 22.2257 51.0632 23.0686 52.0989 24.1244C53.1353 25.1856 53.9635 26.4338 54.5401 27.8038C55.1403 29.222 55.4458 30.7487 55.4379 32.2902V47.0078H48.881V32.2902H48.9264C48.9302 31.6332 48.8015 30.9823 48.5481 30.3769C48.2987 29.7886 47.941 29.2531 47.4939 28.7985C47.0474 28.3506 46.5202 27.9924 45.9404 27.7429C45.3434 27.4835 44.6993 27.3522 44.049 27.3572C43.3842 27.3531 42.7254 27.4843 42.1122 27.7429C41.5237 27.9871 40.989 28.3459 40.5386 28.7985C40.0894 29.2513 39.7314 29.7873 39.4844 30.3769C39.2259 30.9813 39.0921 31.6322 39.091 32.2902V47.0129Z" fill="#F8F8F8"/>
<path d="M91.0459 51.6765H84.489V16.1003H86.0677L88.6703 19.2012C89.2782 18.6267 89.9254 18.0959 90.6071 17.6127C91.2988 17.1222 92.0312 16.6926 92.7961 16.3287C93.5522 15.9689 94.341 15.6834 95.1516 15.4761C95.9553 15.2658 96.7825 15.16 97.613 15.1614C99.353 15.1496 101.078 15.4806 102.692 16.1359C104.251 16.7636 105.668 17.7008 106.858 18.8916C108.071 20.1193 109.026 21.5793 109.668 23.1851C110.366 24.9608 110.709 26.8581 110.676 28.7677C110.713 30.7204 110.37 32.6615 109.668 34.4822C109.031 36.0889 108.075 37.5481 106.858 38.7706C105.671 39.952 104.254 40.8745 102.697 41.4807C101.078 42.1122 99.3546 42.4307 97.618 42.4196C97.0427 42.4187 96.4693 42.354 95.9082 42.2267C95.3389 42.0969 94.7794 41.9274 94.2336 41.7192C93.6838 41.501 93.1442 41.2574 92.6095 40.9833C92.0749 40.7093 91.5604 40.4302 91.0661 40.1409L91.0459 51.6765ZM104.124 28.7524C104.144 27.7512 103.973 26.7555 103.62 25.8191C103.306 24.9977 102.831 24.2486 102.223 23.6165C101.633 23.0164 100.925 22.5463 100.145 22.2361C99.3447 21.9049 98.4883 21.7326 97.6231 21.7286C96.7574 21.7286 95.9002 21.9011 95.1012 22.2361C94.3252 22.5488 93.6213 23.0187 93.0332 23.6165C92.4249 24.2486 91.9497 24.9977 91.6361 25.8191C91.2836 26.7555 91.1124 27.7512 91.1317 28.7524C91.1163 29.7302 91.2875 30.7019 91.6361 31.6148C91.9508 32.4385 92.4258 33.1908 93.0332 33.8275C93.6208 34.436 94.3241 34.9192 95.1012 35.2485C95.8991 35.5874 96.757 35.76 97.6231 35.756C98.4887 35.756 99.3459 35.5835 100.145 35.2485C100.926 34.9219 101.634 34.4384 102.223 33.8275C102.83 33.1908 103.305 32.4385 103.62 31.6148C103.969 30.7019 104.14 29.7302 104.124 28.7524Z" fill="#F8F8F8"/>
<path d="M82.2379 25.6014C81.5993 23.9931 80.6495 22.5285 79.4437 21.2927C78.2608 20.0969 76.8485 19.1558 75.2926 18.5268C73.6708 17.8697 71.9367 17.5386 70.1883 17.5524C68.4439 17.5351 66.7147 17.8807 65.1092 18.5674C63.5358 19.2428 62.1102 20.2238 60.9141 21.4544C59.718 22.6849 58.7749 24.1407 58.1387 25.7384C57.4479 27.4651 57.105 29.3127 57.1299 31.1738C57.1079 33.015 57.4509 34.8421 58.1387 36.5483C59.4334 39.7687 61.9381 42.3455 65.1092 43.7194C66.7192 44.4091 68.4511 44.7646 70.2009 44.7646C71.9508 44.7646 73.6826 44.4091 75.2926 43.7194C76.8463 43.0426 78.2557 42.0708 79.4437 40.857C80.6431 39.616 81.592 38.1528 82.2379 36.5483C82.9258 34.8421 83.2687 33.015 83.2467 31.1738C83.2767 29.2678 82.934 27.3744 82.2379 25.6014ZM65.5934 24.8808C66.1633 24.8821 66.7096 25.1101 67.1131 25.5152C67.5165 25.9202 67.7445 26.4693 67.7471 27.0427C67.7458 27.6166 67.5183 28.1665 67.1145 28.5718C66.7108 28.9771 66.1637 29.2047 65.5934 29.2047C65.0235 29.2034 64.4772 28.9753 64.0738 28.5703C63.6703 28.1653 63.4424 27.6162 63.4397 27.0427C63.4397 26.7575 63.4958 26.4752 63.6047 26.2119C63.7136 25.9486 63.8733 25.7095 64.0744 25.5086C64.2755 25.3076 64.5142 25.1487 64.7766 25.0409C65.039 24.9332 65.3201 24.8788 65.6035 24.8808H65.5934ZM76.1854 34.0565C75.8675 34.8786 75.3929 35.6303 74.7882 36.2692C74.1984 36.8773 73.4935 37.3604 72.7152 37.6902C71.9173 38.0291 71.0594 38.2017 70.1934 38.1977C69.3241 38.2027 68.4639 38.0192 67.6715 37.6598C66.8977 37.3053 66.2003 36.8018 65.6186 36.1778C64.6589 35.1324 64.0349 33.82 63.8281 32.4121H76.6091C76.5321 32.9755 76.3881 33.5276 76.1803 34.0565H76.1854ZM76.3216 28.6871C75.9485 29.0063 75.4782 29.1878 74.9886 29.2014C74.499 29.2149 74.0195 29.0598 73.6295 28.7616C73.2395 28.4634 72.9625 28.0402 72.8443 27.5619C72.7261 27.0836 72.7739 26.5791 72.9796 26.1319C73.1854 25.6847 73.5369 25.3216 73.9757 25.1029C74.4146 24.8841 74.9146 24.8228 75.3929 24.9291C75.8711 25.0354 76.2989 25.3029 76.6054 25.6873C76.9119 26.0717 77.0787 26.5499 77.0781 27.0427C77.0778 27.3561 77.0095 27.6656 76.878 27.9496C76.7464 28.2336 76.5548 28.4853 76.3165 28.6871H76.3216Z" fill="#F8F8F8"/>
<path d="M199.945 48.2793H187.23V55.1661H199.945V48.2793Z" fill="#F8F8F8"/>
<path d="M130.942 46.9926C129.413 47.0031 127.898 46.6955 126.493 46.0892C123.743 44.913 121.554 42.71 120.385 39.9433C119.782 38.5294 119.477 37.0055 119.487 35.4671V27.819H116.31V21.257H119.487V10.98H125.994V21.257H135.89V27.7987H125.994V35.4671C125.989 36.1189 126.113 36.7651 126.359 37.3681C126.605 37.9711 126.968 38.5187 127.426 38.9791C127.883 39.4262 128.418 39.7841 129.005 40.0347C129.616 40.2999 130.276 40.4347 130.942 40.4305H135.89V46.9723L130.942 46.9926Z" fill="#F8F8F8"/>
<path d="M170.744 55.2807H164.187V19.6994H165.766L168.373 22.8054C168.98 22.2294 169.627 21.6985 170.31 21.2169C171 20.7249 171.731 20.2936 172.494 19.9278C173.25 19.568 174.039 19.2825 174.85 19.0752C175.654 18.8674 176.481 18.7617 177.311 18.7606C179.053 18.7487 180.78 19.0797 182.395 19.735C183.95 20.3646 185.363 21.3017 186.551 22.4907C187.767 23.7168 188.724 25.1771 189.366 26.7842C190.062 28.5607 190.405 30.4574 190.375 32.3668C190.409 34.3194 190.066 36.2601 189.366 38.0813C188.731 39.6962 187.773 41.1628 186.551 42.39C185.365 43.5686 183.95 44.4893 182.395 45.095C180.774 45.7266 179.049 46.0451 177.311 46.0339C176.738 46.0328 176.166 45.9681 175.606 45.8411C175.036 45.7143 174.476 45.5447 173.932 45.3336C173.382 45.1153 172.837 44.8717 172.303 44.5977C171.768 44.3236 171.259 44.0445 170.764 43.7603L170.744 55.2807ZM183.823 32.3516C183.841 31.3504 183.67 30.3548 183.318 29.4182C183.003 28.5966 182.526 27.8474 181.916 27.2156C181.326 26.6155 180.618 26.1454 179.838 25.8352C179.037 25.506 178.181 25.3338 177.316 25.3277C176.451 25.3314 175.594 25.5037 174.794 25.8352C174.018 26.148 173.314 26.6178 172.726 27.2156C172.119 27.8487 171.644 28.5976 171.329 29.4182C170.977 30.3548 170.806 31.3504 170.825 32.3516C170.809 33.3294 170.981 34.301 171.329 35.2139C171.646 36.0382 172.12 36.7918 172.726 37.4317C173.314 38.0386 174.017 38.5201 174.794 38.8476C175.592 39.1883 176.45 39.361 177.316 39.3551C178.182 39.3584 179.04 39.1858 179.838 38.8476C180.619 38.5228 181.326 38.041 181.916 37.4317C182.525 36.7934 183.002 36.0395 183.318 35.2139C183.667 34.301 183.838 33.3294 183.823 32.3516Z" fill="#F8F8F8"/>
<path d="M161.901 25.6014C161.262 23.9931 160.313 22.5285 159.107 21.2927C157.924 20.0969 156.512 19.1558 154.956 18.5268C153.334 17.8697 151.6 17.5386 149.851 17.5524C148.107 17.5351 146.378 17.8807 144.772 18.5674C143.199 19.2428 141.773 20.2238 140.577 21.4544C139.381 22.6849 138.438 24.1407 137.802 25.7384C137.111 27.4651 136.768 29.3127 136.793 31.1738C136.771 33.015 137.114 34.842 137.802 36.5483C139.097 39.7687 141.601 42.3455 144.772 43.7194C146.382 44.4091 148.114 44.7646 149.864 44.7646C151.614 44.7646 153.346 44.4091 154.956 43.7194C156.509 43.0426 157.919 42.0707 159.107 40.857C160.306 39.616 161.255 38.1527 161.901 36.5483C162.589 34.842 162.932 33.015 162.91 31.1738C162.94 29.2678 162.597 27.3744 161.901 25.6014ZM145.256 24.8808C145.826 24.8821 146.373 25.1101 146.776 25.5151C147.18 25.9202 147.408 26.4693 147.41 27.0427C147.409 27.6166 147.181 28.1665 146.778 28.5718C146.374 28.9771 145.827 29.2047 145.256 29.2047C144.687 29.2034 144.14 28.9753 143.737 28.5703C143.333 28.1653 143.105 27.6162 143.103 27.0427C143.103 26.7575 143.159 26.4751 143.268 26.2118C143.377 25.9485 143.536 25.7095 143.737 25.5086C143.939 25.3076 144.177 25.1487 144.44 25.0409C144.702 24.9332 144.983 24.8787 145.267 24.8808H145.256ZM155.848 34.0565C155.531 34.8786 155.056 35.6303 154.451 36.2692C153.861 36.8772 153.157 37.3604 152.378 37.6902C151.58 38.029 150.723 38.2017 149.856 38.1977C148.987 38.2027 148.127 38.0192 147.335 37.6597C146.561 37.3052 145.863 36.8018 145.282 36.1778C144.322 35.1324 143.698 33.82 143.491 32.4121H156.272C156.195 32.9755 156.051 33.5276 155.843 34.0565H155.848ZM155.985 28.687C155.612 29.0063 155.141 29.1878 154.652 29.2013C154.162 29.2149 153.683 29.0597 153.293 28.7616C152.903 28.4634 152.626 28.0401 152.507 27.5619C152.389 27.0836 152.437 26.5791 152.643 26.1319C152.848 25.6847 153.2 25.3216 153.639 25.1029C154.078 24.8841 154.578 24.8228 155.056 24.9291C155.534 25.0354 155.962 25.3029 156.269 25.6873C156.575 26.0717 156.742 26.5499 156.741 27.0427C156.741 27.3561 156.673 27.6656 156.541 27.9496C156.409 28.2336 156.218 28.4853 155.98 28.687H155.985Z" fill="#F8F8F8"/>
</svg>
